# xmcd
#
# Track frame offsets:
# 150
# 12738
# 24835
# 39694
# 57262
# 70498
# 91465
#
# Disc length: 1439 seconds
#
#
# Revision: 0
# Processed by: cddbd v1.5.1PL0 Copyright (c) Steve Scherf et al.
# Submitted via: FreeRIP 2.81 
#
DISCID=5b059d07
DTITLE=Menage - Menage A Trois
DYEAR=2003
DGENRE=Jazz
TTITLE0=Churnin
TTITLE1=Trouble
TTITLE2=Don't Make Me Cry
TTITLE3=Modern
TTITLE4=Punch
TTITLE5=Honey
TTITLE6=Turkey Cigar
EXTD=
EXTT0=
EXTT1=
EXTT2=
EXTT3=
EXTT4=
EXTT5=
EXTT6=
PLAYORDER=
